<svg xmlns="http://www.w3.org/2000/svg" xmlns:xlink="http://www.w3.org/1999/xlink" version="1.1" id="Layer_1" x="0px" y="0px" width="100px" height="91.084px" viewBox="0 0 100 91.084" enable-background="new 0 0 100 91.084" xml:space="preserve">
<path d="M55.149,89.184c0,1.041-0.938,1.9-2.109,1.9H21.498c-1.172,0-2.123-0.859-2.123-1.9V74.809c0-1.055,0.951-1.908,2.123-1.908  H53.04c1.172,0,2.109,0.854,2.109,1.908V89.184z"/>
<path d="M100,74.809c0-1.055-0.95-1.901-2.129-1.901H66.335c-1.179,0-2.129,0.847-2.129,1.901v14.375c0,1.048,0.95,1.9,2.129,1.9  h31.536c1.179,0,2.129-0.853,2.129-1.9V74.809z"/>
<path d="M77.578,47.568c0-1.055-0.95-1.907-2.129-1.907H43.906c-1.159,0-2.123,0.853-2.123,1.907v14.375  c0,1.042,0.964,1.908,2.123,1.908h31.543c1.179,0,2.129-0.866,2.129-1.908V47.568z"/>
<path d="M44.961,31.345L44.961,31.345c1.035,0.726,2.461,0.472,3.203-0.573l7.2-10.345c0.729-1.035,0.476-2.471-0.56-3.2l0,0  l-2.227-1.533l-9.772,14.15L44.961,31.345z"/>
<path d="M0,52.65c1.387,2.952,4.492,4.964,7.552,5.309L26.66,30.703l-7.578-5.309L0,52.65z"/>
<path d="M40.67,25.833c0.137,0.189,0.261,0.375,0.378,0.573c0.084,0.153,0.163,0.303,0.234,0.437  c0.124,0.296,0.26,0.579,0.325,0.862c2.812-4.026,5.638-8.047,8.457-12.067c0,0-6.582,0.801-10.032-7.035  c-0.71-0.498-1.452-0.999-2.162-1.504c-9.922-6.94-19.336-8.356-27.539-6.123c-0.449,0.124-1.341,0.417-2.155,0.69  c-1.439,0.488-1.185,2.676,0.43,2.415c0.762-0.133,1.536-0.26,1.914-0.28c1.562-0.068,3.06-0.176,4.622,0.114  c6.654,1.276,11.882,7.337,7.52,13.564c-1.178,1.664-3.528,4.945-3.502,4.984c0.013,0.026,9.916,6.872,9.87,6.943  c-0.28,0.397,0.671-0.885,0.983-1.283c1.465-1.719,4.557-4.658,8.366-3.89c0.592,0.124,1.094,0.397,1.504,0.742  c0.202,0.179,0.41,0.364,0.586,0.583C40.547,25.648,40.605,25.742,40.67,25.833z"/>
</svg>